<svg version="1.2" xmlns="http://www.w3.org/2000/svg" viewBox="0 0 2000 684" width="142" height="49">
	<title>logo</title>
	<style>
		.s0 { fill: #fcfcfd } 
		.s1 { fill: #fefefe } 
		.s2 { fill: #444b71 } 
		.s3 { fill: #464d72 } 
		.s4 { fill: #494f75 } 
		.s5 { fill: #40476e } 
		.s6 { fill: #42496f } 
		.s7 { fill: #474e73 } 
		.s8 { fill: #41486f } 
		.s9 { fill: #41486e } 
		.s10 { fill: #424970 } 
		.s11 { fill: #ecedf1 } 
		.s12 { fill: #434970 } 
		.s13 { fill: #e6e6eb } 
		.s14 { fill: #c9ccd5 } 
		.s15 { fill: #444a71 } 
		.s16 { fill: #d2d3dd } 
		.s17 { fill: #bfc2ce } 
		.s18 { fill: #fdfdfd } 
		.s19 { fill: #f3f3f6 } 
		.s20 { fill: #f6f6f8 } 
		.s21 { fill: #c9cbd6 } 
		.s22 { fill: #f4f5f7 } 
		.s23 { fill: #484f74 } 
		.s24 { fill: #f2f3f6 } 
		.s25 { fill: #454c72 } 
		.s26 { fill: #dbdce3 } 
		.s27 { fill: #f2f2f5 } 
		.s28 { fill: #fafbfb } 
		.s29 { fill: #e6e7ec } 
		.s30 { fill: #4e5478 } 
		.s31 { fill: #ecedf0 } 
		.s32 { fill: #4d5378 } 
		.s33 { fill: #4b5176 } 
		.s34 { fill: #ebebef } 
		.s35 { fill: #f8f8fa } 
		.s36 { fill: #f3f4f6 } 
		.s37 { fill: #f4f4f6 } 
		.s38 { fill: #b2b5c4 } 
		.s39 { fill: #b4b7c6 } 
		.s40 { fill: #e3e4ea } 
		.s41 { fill: #d2d3dc } 
		.s42 { fill: #ededf1 } 
		.s43 { fill: #eaebef } 
		.s44 { fill: #dee0e6 } 
	</style>
	<path id="Layer copy" class="s0" d="m476.4 578.7c-1.1 0.1-1.1 0.1-2.3 0.1q-3.9 0-7.7 0-2.8 0-5.5 0-7.5 0-15 0-7.9 0.1-15.7 0.1-13.2 0-26.4 0-15.3 0.1-30.5 0.1-13.1 0.1-26.2 0.1-7.8 0-15.6 0-7.4 0.1-14.7 0.1-2.7 0-5.4 0-3.7 0-7.4 0-1 0-2.1 0c-5.3 0-9.4-1.2-13.3-4.8-7.2-9.2-5.4-11.2-5.4-25.5 70.2-0.2 140.5-0.4 213-0.6 0 20 0 20-4.1 25.4-4.8 4.2-9.5 5.1-15.7 5z"/>
	<path class="s1" d="m299.2 106.8c1.3 0 1.3 0 2.5 0q4.1 0 8.2 0 2.9 0 5.8 0 8 0 15.9 0 8.3 0 16.6 0 15.7 0 31.4 0.1 17.9 0 35.8 0 36.8 0 73.6 0.1 0 1 0 2c1.8 0.1 1.8 0.1 3.6 0.2 6.9 0.9 11.8 5.4 16 10.8 5 7.1 6.7 13.4 7 22q0.1 1.4 0.1 2.8c0.6 15.3 0.4 30.6 0.4 45.9q0 7.2 0 14.4 0 14.1 0 28.2 0 11.4 0 22.9 0 1.6 0 3.3 0 3.3 0 6.6 0 31.1 0 62.2 0 26.6 0 53.2 0 31 0 62 0 3.3 0 6.6 0 1.6 0 3.3 0 11.4 0 22.8 0 14 0 27.9 0 7.1 0 14.2c0.1 36.3 0.1 36.3-1.1 52.7q-1 0-2 0-0.1 1.5-0.2 3.1c-0.6 4.6-2.8 7.3-5.8 10.9q-1 0-2 0-0.5 1.5-1 3c-1.7 1.8-1.7 1.8-3.9 3.6-1.1 0.9-1.1 0.9-2.2 1.8-9.3 5.2-21 3.9-31.3 3.9q-2.8 0-5.6 0-7.5 0-15.1 0-7.9 0-15.8 0-13.2 0-26.5 0-15.3-0.1-30.6 0-13.2 0-26.3 0-7.9 0-15.8 0-7.3 0-14.7 0-2.7 0-5.4 0c-23.3 0-23.3 0-30.4-4.8q-1-0.6-2-1.3-0.7-0.6-1.4-1.2 0-1 0-2c-0.9-0.3-0.9-0.3-1.7-0.7-2.9-1.6-4.4-3.6-6.3-6.3q0-1 0-2-1 0-2 0c-2.9-7.5-5.2-14.3-5.3-22.5q0-1.1 0-2.2 0-3.6 0-7.2 0-2.7 0-5.3 0-7.2 0-14.4 0-7.8 0-15.6 0-15.3 0-30.5 0-12.4 0-24.8 0-1.8 0-3.6 0-3.6 0-7.2 0-33.6 0-67.2 0-30.8 0-61.5-0.1-31.6-0.1-63.2 0-17.7 0-35.5 0-15.1 0-30.2 0-7.7 0-15.4 0-7 0-14.1 0-2.5 0-5.1c-0.1-15.6-0.1-15.6 3.4-22.5q0.5-1.2 1-2.5c3.9-9.6 9.7-14.9 19-19.5 4.8-1.9 9.1-2.3 14.2-2.2zm-16.2 446.2c-0.3 8.4 0.7 14.2 6 21 4.1 3.2 7.7 3.4 12.8 3.4q1.1 0 2.3 0 3.9 0 7.8 0 2.8 0 5.6 0 7.6 0.1 15.1 0.1 6.4 0 12.7 0 14.9 0 29.9 0 15.4 0 30.8 0.1 13.2 0 26.4 0 7.9 0 15.8 0 7.5 0.1 14.9 0 2.7 0 5.4 0 3.8 0.1 7.5 0 1 0 2.1 0.1c5-0.1 7.8-1.5 11.7-4.3 1.5-1.5 1.5-1.5 1.2-4.4q1 0 2 0c1-3.1 1.3-5.8 1.6-9.1q0.2-1.5 0.3-3.2c0.3-2.7 0.3-2.7-0.9-4.7q-40.8 0-81.6-0.1-19 0-38 0-16.5 0-33 0-8.7 0-17.5 0-8.2 0-16.4 0-3.1 0-6.1 0-4.1 0-8.2 0-1.2 0-2.5 0c-4-0.1-4-0.1-7.7 1.1z"/>
	<path class="s2" d="m970.4 253.3c1 0 1 0 2 0 33.1 1.2 62.1 9.8 85.8 33.6 1.8 2.1 1.8 2.1 1.8 4.1q1 0 2 0c17.8 21.8 21.8 50.3 19.4 77.6-1.1 10.2-4 18.4-11.5 25.8-15.2 12.2-33.4 13-52.1 13.1q-2.9 0-5.8 0.1-7.6 0-15.2 0.1-7.7 0-15.3 0.1c-19.5 0.2-39 0.3-58.5 0.2q0.2 2.6 0.4 5.2 0.1 1.5 0.2 3c0.6 4.2 2.3 7.5 4.3 11.2q0.6 1.1 1.1 2.1 1.5 2.8 3 5.5c0.6 1.2 0.6 1.2 1.1 2.4 1.2 2.2 2.6 2.7 4.9 3.6q0 1 0 2 1 0.4 2.1 0.7c2.9 1.3 2.9 1.3 6.2 3.2 14.8 8.5 29.9 9.9 46.7 9.1 1.8-0.1 1.8-0.1 3.7-0.2 13.5-1.3 25.8-7.9 37-15.3 8.3-5.3 15.6-5.4 25-3.4 20.6 4.9 20.6 4.9 25.3 11.9 0.2 2.6 0.3 4.9 0.3 7.4-0.1 2-0.1 2-0.1 4-0.2 2.8-0.4 5-1.2 7.6q-1 0-2 0 0 0.9-0.1 1.9c-0.4 6.4-1.9 11.4-4.9 17.1q-1 0-2 0-0.5 1.5-1 3c-3 2-3 2-6 2q0 1 0 2c-10.9 5.8-21.8 10.6-33.7 14q-1.5 0.4-3 0.8c-16.1 4.4-32.4 4.5-49 4.5q-5.2-0.1-10.4 0c-26.5 0-26.5 0-38.9-4.3q-2.2-0.5-4.4-0.9c-4.4-1-8.4-2.4-12.6-4.1q-1.3-0.5-2.7-1c-8-3.2-15.1-7.3-22.3-12q-1.6-1-3.2-2.1c-3-2.1-5.3-4.3-7.8-6.9-1.1-1.1-1.1-1.1-2.3-2.3q-1.2-1.2-2.5-2.4-1.2-1.1-2.4-2.3c-1.8-2-1.8-2-1.8-4q-1 0-2 0c-6-7.6-14.7-19-14-29q-1 0-2 0c-4-12.4-6-24.2-6.8-37.1-0.1-2-0.1-2-1.2-3.9q-0.1-3.5-0.1-6.9 0-1 0-2.1 0-2.1 0-4.3 0-3.3 0-6.6 0-2.1 0-4.2 0-1.9 0-3.9c0.1-3 0.1-3 1.1-5q0.2-2.1 0.4-4.2c1.3-18.2 5.3-33.6 13.6-49.8q0.7-1.3 1.3-2.7 1.4-2.7 2.7-5.3 1 0 2 0 0.2-0.9 0.4-1.8c1.4-5 3.9-7.6 7.6-11.2q0.8-1.1 1.7-2.3 0.6-0.8 1.3-1.7 1 0 2 0 0.5-1.5 1-3c1.8-1.8 1.8-1.8 3.9-3.7q1.1-0.9 2.2-1.9c1.9-1.4 1.9-1.4 3.9-1.4q0-1 0-2c2.2-1.5 4.3-2.9 6.6-4.2q1-0.6 2-1.2c13.9-8 28.1-13.9 44-16.2 2.4-0.3 2.4-0.3 4.4-1.4 8.1-1.4 16.3-1 24.4-0.8zm-28.4 59.8q0 1 0 2-0.9 0.4-1.9 0.7c-2.5 1.5-3.1 2.7-4.1 5.3q-1 0-2 0-0.5 2-1 4-1 0-2 0-2 4.3-3.9 8.7-0.6 1.2-1.2 2.4c-2.1 5-3.2 9.3-3.5 14.7q-0.1 1.8-0.2 3.5-0.1 1.4-0.2 2.7 15.7 0.1 31.5 0.1 7.3 0 14.6 0.1 7 0 14.1 0 2.7 0 5.4 0 3.7 0 7.5 0 1.1 0 2.3 0c3.6 0 6.6 0 9.6-2.2 3.2-4.7 4.4-7.2 4-13-0.6-2.7-1.2-5.3-2-7.9-0.3-1-0.3-1-0.6-2.1q-0.7-2.5-1.4-5-1 0-2 0c-0.4-1.1-0.4-1.1-0.8-2.2-3.4-8-8.7-12-16.4-15.9-4.4-1.8-9-2.6-13.8-2.9q-1.4-0.1-2.8-0.2c-10.7-0.3-19.6 2.5-29.2 7.2z"/>
	<path class="s3" d="m1378 253.7q4.5 0 9-0.1c11.7 0 22.6 0.8 34 3.4q1.3 0.3 2.7 0.6c14.6 3.5 28.9 10.3 40.3 20.4q0 1 0 2c2 1 2 1 4 2q0 1 0 2 1 0 2 0c8.4 10.2 13.9 21.8 17.8 34.4q0.2 1 0.6 2c3.4 12.1 3.9 24.4 3.9 36.9q0 2.4 0.1 4.7 0 6.4 0 12.8 0 4 0 7.9 0.1 12.5 0.1 25 0 14.4 0.1 28.8 0 11.1 0 22.3 0 6.6 0.1 13.3 0 6.2 0 12.5 0 2.2 0 4.5c0.2 11.5 0.2 11.5-2 14.9-3.5 3.1-7.3 4.1-11.9 4.2-1.2 0-1.2 0-2.5 0q-1.4 0-2.8 0-1.3 0-2.8 0-2.9 0-5.9 0-4.5 0.1-9 0.1-2.9 0-5.8 0c-1.4 0-1.4 0-2.7 0.1-6.5-0.1-11.5-0.9-16.5-5.4q-0.9-1-1.7-2.1-0.9-1-1.8-2.1c-1.3-1.8-1.3-1.8-1.3-3.8q-1 0-2 0c-1.3-1.7-1.3-1.7-2.6-3.9q-0.7-1-1.4-2.2c-1-1.9-1-1.9-1-3.9q-1 0-2 0 0-1 0-2c-2.6 2.6-5 5-7.3 7.9-10.5 12.6-27.4 17.6-42.7 21.1q-1.1 0.3-2.2 0.5c-6.1 1-12.3 0.8-18.5 0.9q-2.5 0-5.1 0c-20.1 0.5-38.3-4.4-54.2-17.4q0-1 0-2-2-1-4-2 0-1 0-2-1.5-0.5-3-1c-13.7-16.8-17.5-37.8-16-59 1.5-14 5.8-25.9 13-38q1 0 2 0 0.3-0.8 0.7-1.7c1.7-2.9 3.8-5 6.3-7.3q0.9-0.9 1.7-1.8c28.1-27.3 78.2-30.6 115.1-31.8q1.9 0 3.8-0.1 4.7-0.2 9.4-0.3-0.3-1.6-0.6-3.3-0.4-2.1-0.8-4.3c-0.2-1-0.2-1-0.4-2.1q-1.3-6.6-2.2-13.3-1 0-2 0-0.8-1.3-1.6-2.6c-4.7-7.4-12.3-10-20.5-11.9-23.3-4.3-42.3 1.4-61.6 14.4-9 4.4-19.2 0.5-28.1-2.5q-2.5-0.9-4.9-1.8c-1.2-0.4-1.2-0.4-2.3-0.8-3.4-1.3-5.6-2.4-8.1-5.1-1.2-3.5-0.9-5.9-0.3-9.6q0.1-0.9 0.3-1.9c1.1-7.2 3.1-14.2 5.1-21.2q1 0 2 0 0.1-1.1 0.2-2.2c1.8-6.4 8.3-9.7 13.8-12.8 3.3-1.5 6.6-2.8 10-4.1 1.4-0.5 1.4-0.5 2.8-1 20.1-7.4 39.9-9.3 61.2-9.2zm14.8 143.1c-1.8 0.1-1.8 0.1-3.5 0.2-14.7 1.1-32.5 3.9-43.3 15-5.3 7.4-8.2 15.9-7 25 1.4 5.5 3.3 10.6 8.1 14 11.6 6.4 25.9 6.9 38.7 3.8 10.1-3.7 18.5-10.8 24.2-19.8q0-1 0-2 1 0 2 0c3.7-7.6 3.3-14.7 3.2-23q0-2-0.1-4.1 0-4.9-0.1-9.9c-7.5-0.1-14.8 0.3-22.2 0.8z"/>
	<path class="s4" d="m299.2 106.8c1.3 0 1.3 0 2.5 0q4.1 0 8.2 0 2.9 0 5.8 0 8 0 15.9 0 8.3 0 16.6 0 15.7 0 31.4 0.1 17.9 0 35.8 0 36.8 0 73.6 0.1 0 1 0 2c1.8 0.1 1.8 0.1 3.6 0.2 6.9 0.9 11.8 5.4 16 10.8 5 7.1 6.7 13.4 7 22q0.1 1.4 0.1 2.8c0.6 15.3 0.4 30.6 0.4 45.9q0 7.2 0 14.4 0 14.1 0 28.2 0 11.4 0 22.9 0 1.6 0 3.3 0 3.3 0 6.6 0 31.1 0 62.2 0 26.6 0 53.2 0 31 0 62 0 3.3 0 6.6 0 1.6 0 3.3 0 11.4 0 22.8 0 14 0 27.9 0 7.1 0 14.2c0.1 36.3 0.1 36.3-1.1 52.7q-1 0-2 0-0.1 1.5-0.2 3.1c-0.6 4.6-2.8 7.3-5.8 10.9q-1 0-2 0-0.5 1.5-1 3c-1.7 1.8-1.7 1.8-3.9 3.6-1.1 0.9-1.1 0.9-2.2 1.8-9.3 5.2-21 3.9-31.3 3.9q-2.8 0-5.6 0-7.5 0-15.1 0-7.9 0-15.8 0-13.2 0-26.5 0-15.3-0.1-30.6 0-13.2 0-26.3 0-7.9 0-15.8 0-7.3 0-14.7 0-2.7 0-5.4 0c-23.3 0-23.3 0-30.4-4.8q-1-0.6-2-1.3-0.7-0.6-1.4-1.2 0-1 0-2c-0.9-0.3-0.9-0.3-1.7-0.7-2.9-1.6-4.4-3.6-6.3-6.3q0-1 0-2-1 0-2 0c-2.9-7.5-5.2-14.3-5.3-22.5q0-1.1 0-2.2 0-3.6 0-7.2 0-2.7 0-5.3 0-7.2 0-14.4 0-7.8 0-15.6 0-15.3 0-30.5 0-12.4 0-24.8 0-1.8 0-3.6 0-3.6 0-7.2 0-33.6 0-67.2 0-30.8 0-61.5-0.1-31.6-0.1-63.2 0-17.7 0-35.5 0-15.1 0-30.2 0-7.7 0-15.4 0-7 0-14.1 0-2.5 0-5.1c-0.1-15.6-0.1-15.6 3.4-22.5q0.5-1.2 1-2.5c3.9-9.6 9.7-14.9 19-19.5 4.8-1.9 9.1-2.3 14.2-2.2zm-16.2 67.2c0 118.5 0 236.9 0 359 70.3 0 140.6 0 213 0 0-118.5 0-236.9 0-359-70.3 0-140.6 0-213 0zm0 379c-0.3 8.4 0.7 14.2 6 21 4.1 3.2 7.7 3.4 12.8 3.4q1.1 0 2.3 0 3.9 0 7.8 0 2.8 0 5.6 0 7.6 0.1 15.1 0.1 6.4 0 12.7 0 14.9 0 29.9 0 15.4 0 30.8 0.1 13.2 0 26.4 0 7.9 0 15.8 0 7.5 0.1 14.9 0 2.7 0 5.4 0 3.8 0.1 7.5 0 1 0 2.1 0.1c5-0.1 7.8-1.5 11.7-4.3 1.5-1.5 1.5-1.5 1.2-4.4q1 0 2 0c1-3.1 1.3-5.8 1.6-9.1q0.2-1.5 0.3-3.2c0.3-2.7 0.3-2.7-0.9-4.7q-40.8 0-81.6-0.1-19 0-38 0-16.5 0-33 0-8.7 0-17.5 0-8.2 0-16.4 0-3.1 0-6.1 0-4.1 0-8.2 0-1.2 0-2.5 0c-4-0.1-4-0.1-7.7 1.1z"/>
	<path class="s5" d="m648.6 160.1q3.5 0 6.9-0.1 9.4 0 18.7 0 7.8 0 15.6 0 19.5 0 38.9 0 15.9 0.1 31.7 0 18.4-0.1 36.8 0 9.7 0 19.5-0.1 9.1 0 18.3 0.1 3.3 0 6.7 0c20.4-0.2 20.4-0.2 28.2 6.9q1 1 2.1 2.1 2.5 2 5 4c2.8 2.6 2.8 2.6 5 5q0 1 0 2 0.9 0.4 1.9 0.8c2.5 1.4 3.1 2.6 4.1 5.2q1 0 2 0c2.3 2.8 3 4.6 3.1 8.3-2.3 7.7-7.8 12.9-14.3 17.4-1.8 1.3-3.2 2.7-4.8 4.3q-2.3 2-4.8 4-1.2 1-2.4 2.1c-5.8 4-10.4 5.3-17.4 5.2q-1.1 0-2.2 0-3.5 0-7.1 0-2.4 0-4.9 0-6.5 0-13-0.1-6.6 0-13.2-0.1-13 0-26-0.1 0 0.9 0 1.7 0.1 50.8 0.1 101.6 0 6.1 0 12.2 0 1.2 0 2.4 0 19.7 0.1 39.3 0 20.2 0 40.3 0 12.5 0 24.9 0 8.5 0 17.1 0 4.9 0 9.8 0.1 5.4 0 10.7 0 1.5 0.1 3.1c-0.1 5-0.2 9.3-2.3 13.9-4.2 4-8.4 4.1-14 4.1q-1.8 0.1-3.6 0.1c-2 0-2 0-4 0q-2 0-4 0-4.2 0-8.5 0-5.4 0-10.8 0-4.2 0-8.4 0-3 0-5.9 0.1-1.8-0.1-3.7-0.1-1.6 0-3.2 0c-4.1-0.3-6.9-1.4-10.1-3.9-4.9-6.2-4.1-14.1-4-21.6q0-1.9 0-3.8-0.1-5 0-10 0-5.3 0-10.6 0-9 0-17.9 0-10.2 0-20.5 0-11 0-22 0-3.1 0-6.2c0-12.5 0-25 0.8-37.5 0.7-11.8 0.6-23.5 0.7-35.3q0-4 0.1-8 0.1-9.4 0.1-18.7 0.1-10.7 0.2-21.4 0.1-21.9 0.3-43.8c-1.4 0-1.4 0-2.8 0q-13.1 0.1-26.1 0.2-6.7 0-13.5 0.1-6.4 0.1-12.9 0.1-2.5 0-5 0c-12 0.2-19.1-1.1-28.7-9q-1.4-1.2-2.9-2.4-1-1-2.1-2 0-1 0-2-0.8-0.3-1.7-0.7c-3-1.7-4.9-3.8-7.3-6.3q-1.4-1.3-2.8-2.7c-2.2-2.3-2.2-2.3-2.2-4.3q-1 0-2 0c-0.8-8-0.8-8 2.3-11.9q1.3-1 2.7-2.1 0.8-0.9 1.7-1.8c1.3-1.2 1.3-1.2 3.3-1.2q0.4-0.9 0.7-1.7c1.6-2.8 3.4-4.5 5.7-6.6q1.2-1.1 2.4-2.2 1.6-1.2 3.2-2.5 0.9-0.9 1.9-1.7c9.5-7.5 20.2-6.3 31.7-6.2z"/>
	<path class="s3" d="m1640.5 253.8q1.2 0 2.5 0 2.5 0 5.1 0 3.9-0.1 7.7-0.1c14.1-0.1 28.8 0.5 41.8 6.6q0.9 0.5 1.9 0.9c8.2 4 16.3 8 19.7 17 1.8 6.9 3.3 13.8 4.2 20.9q0.2 1 0.4 2.1c0.5 4.8 0.1 7.8-2.8 11.8-4.7 3.3-9.6 5.1-15.1 6.7q-1 0.3-2 0.6c-15.7 4.8-15.7 4.8-21.8 1.7-2-1.4-3.9-2.8-5.8-4.3-10.9-7.9-20.9-9.8-34.3-8.7-6.9 1.1-13.3 2.8-19 7-3.1 6.1-2.9 12.9-1.1 19.3 7.9 10.2 22.5 13.9 34.2 18 15.4 5.4 30.5 10.9 44.9 18.7q1.4 0.7 2.8 1.4c13.7 7.6 22.9 18.7 27.9 33.6 5.1 18.5 3.5 40.4-3.7 58q-1 3-2 6-1 0-2 0-0.5 0.9-0.9 1.9-1.1 2-2.1 4.1-1 0-2 0-0.4 0.9-0.8 1.8c-6.6 12.2-22.2 18.6-34.2 24.2q-1.5 0.7-3 1.4c-28.6 12.3-69 13.7-99 5.6q-1.7-0.4-3.4-0.9c-13.7-4-35.2-11.4-43.6-24.1-0.9-5.5 0.5-8.5 3.6-12.8 0.7-1 0.7-1 1.5-2q0.7-1.1 1.5-2.1 2.2-3.1 4.4-6.1 1.9-2.6 3.8-5.3c0.8-1.2 0.8-1.2 1.6-2.3 2.4-3.6 4.7-7.3 6.9-11 2.5-3.5 4.4-6 8.6-7.3 5.4-0.1 8.8 3.3 12.7 6.6 15.9 12.9 32.3 17 52.4 15.3 8.3-1.2 16.4-3.5 22.5-9.4 2.3-5.4 2.3-10.9 1.5-16.6-1.4-2.2-1.4-2.2-3-4q0-1 0-2-1.1-0.4-2.2-0.8c-2.7-1.1-5.1-2.4-7.7-3.8-11.8-5.9-24.4-10.5-37-14.8-13.3-4.5-25.5-10.7-37.1-18.6q-1.1-0.7-2.2-1.5c-1.7-1.1-3.2-2.3-4.8-3.5q0-1 0-2-1 0-2 0 0-1 0-2-0.9-0.3-1.8-0.7c-8-4.7-11.5-17.1-14.2-25.5-1.5-5.7-1.3-11.2-1.3-17q0-3.1-0.1-6.2c0-17 6.1-31.9 17.4-44.6q0.8-0.9 1.6-1.8c16.9-18 40.8-24.6 64.4-28.2q1.3-0.3 2.7-0.5c3.9-0.6 7.8-0.7 11.8-0.7z"/>
	<path class="s6" d="m1158.8 259.6q2 0 4 0 4.2 0 8.4 0 5.4 0 10.7 0 4.2 0 8.3 0 3 0 5.9 0c11.6 0.1 11.6 0.1 16.9 3.4 1.8 2.8 2.3 5 2.3 8.3q0 1.2 0 2.5 0 1.4 0 2.8c0 1.5 0 1.5 0 3q0 5 0 10 0 3.5 0 7.1 0 8.7 0 17.4 0 7.1 0 14.2 0 1 0 2 0 2.1 0 4.1 0 19.3 0 38.6 0 17.6 0 35.1 0.1 18.1 0.1 36.2 0 10.1 0 20.2c0.1 68.9 0.1 68.9-5.4 83.5q-0.7 2.9-1.4 5.9c-1 3.5-2.3 6.8-3.6 10.1q-1 0-2 0c-0.1 1.2-0.1 1.2-0.2 2.4-1.7 7.7-6.6 13.9-11 20.2q-0.6 0.9-1.3 1.9c-1.1 1.5-2.3 3-3.5 4.5q-1 0-2 0-1 2-2 4-1 0-2 0-0.5 1.5-1 3-1 0-2 0-0.5 1.5-1 3c-1.6 1.4-1.6 1.4-3.6 2.9-1.1 0.8-1.1 0.8-2.2 1.6q-1.2 0.9-2.4 1.7c-1.3 0.9-1.3 0.9-2.5 1.8-18.4 12.8-18.4 12.8-28.9 12.6-5.3-1.3-8.4-5.6-11.7-9.7-1.1-1.3-1.1-1.3-2.1-2.7-1.6-2.2-1.6-2.2-1.6-4.2q-1 0-2 0-1-2.5-2-5-1 0-2 0c-1.9-2.2-3.8-4.5-5.6-6.8q-0.7-1-1.5-2c-2.2-2.7-3.8-4.8-4.9-8.2q-1 0-2 0-1-2.5-2-5-1 0-2 0c-0.6-2.9-1.1-5.1-1-8 2.9-3.9 5.6-5.3 10-7q0.5-1.5 1-3c4.5-4 4.5-4 7-4q0.5-1.5 1-3 1.1-1.1 2.3-2.2c3.2-3.3 4.9-6.5 6.9-10.6q0.5-1 1-2.1c2.3-4.6 3.7-9 4.8-14.1q1 0 2 0-0.1-1.5-0.1-3.1c0.1-3.9 0.1-3.9 1.1-6.5 1.3-4.5 1.3-8.7 1.3-13.4q0-1.5 0-3.1 0-5 0-10.1 0-3.6 0-7.3 0-7.8 0-15.6 0-11.3 0.1-22.6 0-18.3 0.1-36.6 0-1.1 0-2.3 0-8.9 0-17.8 0-7.7 0-15.5 0-1.1 0-2.2 0.1-18.3 0.1-36.6 0.1-11.3 0.1-22.5 0-8.7 0-17.3 0-3.5 0-7.1 0-4.8 0-9.6 0-1.4 0-2.9 0-1.3 0-2.6 0-1.1 0-2.2c0.3-2.5 1-4 2.3-6.1 6.5-4 13.4-3.4 20.8-3.4z"/>
	<path class="s0" d="m302.8 125.6c1.2 0 1.2 0 2.3 0q3.9 0 7.7 0 2.8 0 5.6 0 7.5 0 15 0 7.8 0 15.7 0 13.2 0 26.3 0 15.3 0 30.5 0 13.1 0 26.2 0 7.8 0 15.6 0 7.4 0 14.7 0 2.7 0 5.4 0 3.7 0 7.4 0 1 0 2.1 0c5.3 0.1 9.4 1.3 13.3 4.9 7.2 9.2 5.4 11.2 5.4 25.5-70.3 0-140.6 0-213 0 0-20 0-20 4.1-25.4 4.8-4.1 9.5-5 15.7-5z"/>
	<path class="s7" d="m1179 132c8 4.3 14.6 10.6 21 17q1.5 1.5 3.1 3c5.8 5.7 11.3 11.4 16.3 18 1.5 2 1.5 2 3.2 3.6 2.4 2.5 2.8 5 3.4 8.4-1.4 3.4-1.4 3.4-3 6q-1 0-2 0-0.3 1.1-0.7 2.2c-1.6 3.4-3.6 5.4-6.2 8.1q-0.8 0.7-1.5 1.5-1.5 1.5-3 3-2.4 2.3-4.7 4.6c-7.6 7.6-7.6 7.6-9.9 7.6-0.5 1.5-0.5 1.5-1 3-1.8 1.8-1.8 1.8-3.9 3.6-2.1 1.7-4.2 3.5-6.1 5.4q-1.5 0-3 0 0 1 0 2c-5.3 1.3-8 0.9-12.9-1.6-3.8-2.5-6.9-5.6-10.2-8.7-1-1-1-1-2-1.9q-3-2.9-5.9-5.8-1-1-2.1-2c-0.9-0.9-0.9-0.9-1.9-1.9-0.9-0.8-0.9-0.8-1.7-1.6-1.3-1.5-1.3-1.5-1.3-3.5q-0.8-0.3-1.7-0.7c-3-1.7-5-4-7.4-6.6q-1.2-1.4-2.6-2.9c-4.2-5.1-5.8-8.1-5.3-14.8q0.5-1 1-2 1 0 2 0 1-2.5 2-5 1 0 2 0 0.5-1.5 1-3 1 0 2 0 0.4-0.9 0.8-1.8c3.4-6.3 9-11.1 14.4-15.7 2-1.6 2-1.6 4.2-3.9 1.6-1.6 1.6-1.6 3.6-1.6q0-1 0-2c2-1.9 2-1.9 4.7-4q1.4-1 2.7-2.1c4.3-3.1 7.2-4.7 12.6-3.9z"/>
	<path class="s8" d="m332 333c11.2 0 22.4 0 34 0 0 2.4 0 4.9 0 7.4q0 12.1 0.1 24.2 0.1 7.3 0.1 14.6 0 7.1 0.1 14.2 0 2.7 0 5.4c-0.2 13.9-0.2 13.9 5.7 26.2 6 5.7 11.7 6.4 19.7 6.3 6.2-0.6 10.1-3.7 14.2-8.2 3.8-5.5 4.4-10.7 4.4-17.2q0-1.2 0-2.4 0.1-3.9 0.1-7.8 0-2.7 0.1-5.4 0-7.1 0.1-14.3 0.1-7.2 0.1-14.5 0.2-14.2 0.3-28.5c11.2 0 22.4 0 34 0-1.1 10.1-1.1 10.1-1.8 14q-0.2 1.3-0.4 2.7-0.3 1.4-0.5 2.8-0.3 1.5-0.5 3-0.8 4.7-1.6 9.5-1.1 6.5-2.2 13-0.3 1.6-0.5 3.2-1.5 8.6-2.8 17.2-0.2 1.7-0.5 3.4-0.4 2.9-0.8 5.9c-1.7 10.9-5.5 20-14.4 26.8-6.7 4.4-12.7 5.8-20.6 5.8q-1.2 0-2.4 0.1-2.6 0-5.2 0-3.9 0-7.8 0c-16 0.2-16 0.2-23-4.4q-1.2-0.7-2.4-1.4c-8.3-5.9-11.6-13.1-13.5-22.9q-0.3-1.2-0.5-2.5c-2-9.9-3.6-20-5.2-30q-0.8-4.9-1.6-9.8c-1.9-12.1-3.6-24.2-4.8-36.4z"/>
	<path class="s9" d="m419.5 286.6c2.3 1.7 4.4 3.5 6.5 5.4q1 0.9 2.1 1.9c8.6 8.1 13.4 17.6 15.9 29.1q0 3 0 6c-37 0-73.9 0-112 0 1.3-11.8 4.9-20.6 12-30 0.7-0.9 0.7-0.9 1.4-1.9 17.3-22 51.2-25.2 74.1-10.5z"/>
	<path class="s10" d="m370 333c12.2 0 24.4 0 37 0 0.1 20 0.1 20 0.1 28.5q0.1 8.7 0.1 17.4 0.1 7.1 0.1 14.1 0 2.7 0 5.4 0 3.7 0 7.5 0.1 1.1 0.1 2.2c-0.1 6.1-1.8 10-5.7 14.6-5.2 4.4-9.4 5.9-16.2 5.7-5.7-0.9-9.4-4-12.9-8.5-2.6-4.7-2.7-8.5-2.7-13.7q0-1.2 0-2.4 0-3.9 0-7.8 0-2.7 0-5.4 0-7.2 0-14.4 0-8.5 0.1-17.1 0-13.1 0-26.1z"/>
	<path class="s11" d="m627 225c25.4 0 50.8 0 77 0 0 8.3 0 16.6 0 25.2q0 39.8 0.1 79.6 0 6.2 0.1 12.4 0 1.2 0 2.5 0 20 0 39.9 0 20.5 0.1 40.9 0 12.7 0 25.3 0 8.7 0 17.3 0 5 0 10 0 5.4 0.1 10.9-0.1 1.5-0.1 3.2c0.1 4.7 0.1 7 3 11 3.3 2.2 5.2 2.4 9.2 2.4q1.9 0 3.9 0 2.1 0 4.2-0.1 2.1 0 4.3 0 5.7 0 11.3-0.1 4.7 0 9.3-0.1 5.5 0 11.1 0 1 0 2.1 0 3-0.1 6-0.1 1.6 0 3.4 0c2.5-0.2 4.5-0.5 6.9-1.2 0.9-3 1.1-5.7 1.1-8.8q0-1.4 0.1-2.9 0-1.6 0-3.2 0-1.7 0-3.4 0-5.7 0-11.4 0-4.1 0-8.1 0.1-8.8 0.1-17.6 0-12.6 0.1-25.3 0-20.5 0.1-41.1 0.1-20 0.1-39.9c0-1.3 0-1.3 0-2.5q0.1-6.2 0.1-12.4 0.1-51.2 0.3-102.4c25.4 0 50.8 0 77 0q-0.5 1-1 2c-24.4 0-48.8 0-74 0 0 8.2 0 16.4 0 24.8q0.1 39.2 0.1 78.5 0 6.1 0 12.2 0 1.2 0 2.4 0 19.7 0.1 39.3 0 20.2 0 40.3 0 12.5 0 24.9 0 8.5 0 17.1 0 4.9 0 9.8 0.1 5.4 0 10.7 0 1.5 0.1 3.1c-0.1 5-0.2 9.3-2.3 13.9-4.2 4-8.4 4.1-14 4.1q-1.8 0.1-3.6 0.1c-2 0-2 0-4 0q-2 0-4 0-4.2 0-8.5 0-5.4 0-10.8 0-4.2 0-8.4 0-3 0-5.9 0.1-1.8-0.1-3.7-0.1-1.6 0-3.2 0c-4.1-0.3-6.9-1.4-10.1-3.9-4.9-6.2-4.1-14.1-4-21.6q0-1.9 0-3.8-0.1-5 0-10 0-5.3 0-10.6 0-9 0-17.9 0-10.2 0-20.5 0-11 0-22 0-3.1 0-6.2c0-12.5 0-25 0.8-37.5 0.7-11.8 0.6-23.5 0.7-35.3q0-4 0.1-8 0.1-9.4 0.1-18.7 0.1-11.7 0.2-23.5 0.2-20.8 0.3-41.7c-24.8 0-49.5 0-75 0q-0.5-1-1-2z"/>
	<path class="s10" d="m457 325.4c4.2 0.9 5.4 2.1 8 5.6 0.7 4 0.7 8 0.6 12.1q0 1.8 0 3.6 0 3.7 0 7.5 0 5.7 0 11.4 0 3.6 0 7.3 0 1.7 0 3.4c-0.1 7.9-0.1 7.9-2.4 11.9-3.1 2.6-5.2 2.9-9.2 2.8-2.6-1.7-3.6-2.4-5-5-0.8-4.1-0.7-8.2-0.7-12.3q0-1.8 0-3.7 0-3.8 0-7.6 0.1-5.8 0-11.7 0-3.7 0-7.4 0-1.7 0-3.5c0.1-8 0.1-8 3.1-12 2.6-1.8 2.6-1.8 5.6-2.4z"/>
	<path class="s12" d="m320 325.4c4.2 0.9 5.4 2.1 8 5.6 0.7 4 0.7 8 0.6 12.1q0 1.8 0 3.6 0 3.7 0 7.5 0 5.7 0 11.4 0 3.6 0 7.3 0 1.7 0 3.4c-0.1 7.9-0.1 7.9-2.5 11.9-2.3 1.9-3.2 2.5-6.1 2.4q-1 0-2 0c-2.9-0.9-4.1-2.3-6-4.6-0.5-2.5-0.5-2.5-0.5-5.4q-0.1-1.6-0.1-3.3 0-1.8 0-3.5 0-1.8 0-3.7 0-3.8 0-7.6 0-5.9 0-11.7 0-3.7 0-7.4 0-1.8-0.1-3.6c0.1-8 0.1-8 3.1-12 2.6-1.8 2.6-1.8 5.6-2.4z"/>
	<path class="s1" d="m289 110q-0.9 0.4-1.9 0.8c-9 4-15 10.1-19.3 19-2.1 6-3.1 11.4-3.1 17.8q0 1 0 2.1 0 3.6 0 7.2 0 2.6 0 5.3 0 7.1 0 14.3 0 7.7 0 15.5 0 15.1 0 30.3 0 12.3 0 24.6-0.1 35-0.1 69.9 0 1.9 0 3.8 0 1.9 0 3.8 0 30.6 0 61.1-0.1 31.4-0.1 62.8 0 17.6 0 35.2 0 15 0 30 0 7.7 0 15.3 0 7 0 14 0 2.6 0 5.1c-0.1 14 1.9 25.7 10.5 37.1 1 1.5 1 1.5 2 3-3.8-1.5-5.7-3.7-8-7q0-1 0-2-1 0-2 0c-2.9-7.5-5.2-14.3-5.3-22.5q0-1.1 0-2.2 0-3.6 0-7.2 0-2.7 0-5.3 0-7.2 0-14.4 0-7.8 0-15.6 0-15.3 0-30.5 0-12.4 0-24.8 0-1.8 0-3.6 0-3.6 0-7.2 0-33.6 0-67.2 0-30.8 0-61.5-0.1-31.6-0.1-63.2 0-17.7 0-35.5 0-15.1 0-30.2 0-7.7 0-15.4 0-7 0-14.1 0-2.5 0-5.1c-0.1-15.6-0.1-15.6 3.4-22.5q0.5-1.2 1-2.5c3.6-8.8 8.5-13.6 16.6-18.5 2.7-1.1 3.8-1 6.4 0z"/>
	<path class="s13" d="m489 109c8.2 0.4 12.6 3.2 18.1 9.1 5.9 7.5 8.2 14.5 8.5 23.9q0.1 1.4 0.1 2.8c0.6 15.3 0.4 30.6 0.4 45.9q0 7.2 0 14.4 0 14.1 0 28.2 0 11.4 0 22.9 0 1.6 0 3.3 0 3.3 0 6.6 0 31.1 0 62.2 0 26.6 0 53.2 0 31 0 62 0 3.3 0 6.6 0 1.6 0 3.3 0 11.4 0 22.8 0 14 0 27.9 0 7.1 0 14.2c0.1 36.3 0.1 36.3-1.1 52.7q-1 0-2 0c-0.1 1.5-0.1 1.5-0.2 3.1-0.6 4.6-2.9 7.3-5.8 10.9q-1-0.5-2-1c0.5-0.7 0.5-0.7 1-1.4q0.6-1 1.3-2 0.7-0.9 1.3-1.9c5-9.7 4.8-19.5 4.8-30.1q0-2.7 0-5.3 0-7.3 0-14.6 0-7.8 0-15.7 0-15.4 0-30.7 0-12.5 0-25c0-1.8 0-1.8 0-3.6q0-3.7 0-7.3 0.1-33.9 0-67.8 0-31 0.1-62 0-31.8 0-63.7 0-17.8 0-35.7 0-15.2 0-30.4 0-7.8 0-15.5 0-7.2 0-14.3 0-2.5 0-5.1c0.1-9-0.1-16.8-4.5-24.9q-0.7-1.3-1.4-2.7c-4.7-7.3-10.6-11.3-18.6-14.3q0-0.5 0-1z"/>
	<path class="s14" d="m781 225c25.4 0 50.8 0 77 0q-0.5 1-1 2c-24.4 0-48.8 0-74 0 0 8.2 0 16.4 0 24.8q0.1 39.2 0.1 78.5 0 6.1 0 12.2 0 1.2 0 2.4 0 19.7 0.1 39.3 0 20.2 0 40.3 0 12.5 0 24.9 0 8.5 0 17.1 0 4.9 0 9.8 0.1 5.4 0 10.7 0 1.5 0.1 3.1c-0.1 5-0.2 9.3-2.3 13.9-4.2 4-8.4 4.1-14.1 4.1q-1.8 0-3.7 0-1.9 0-3.9 0-2.1 0-4.1 0-5.4 0-10.8 0-5.4 0-10.9-0.1-10.8 0-21.5 0 0-1 0-2 1.2 0 2.4 0 11-0.2 22-0.3 5.7-0.1 11.4-0.2 5.5-0.1 10.9-0.2 2.1 0 4.2 0 2.9 0 5.9-0.1 1.6 0 3.3 0c2.5-0.2 4.6-0.5 6.9-1.2 0.9-3 1.1-5.7 1.1-8.8q0-1.4 0.1-2.9 0-1.6 0-3.2 0-1.7 0-3.4 0-5.7 0-11.4 0-4.1 0-8.1 0.1-8.8 0.1-17.6 0-12.6 0.1-25.3 0-20.5 0.1-41.1 0.1-20 0.1-39.9 0-1.3 0-2.5 0.1-6.2 0.1-12.4 0.1-51.2 0.3-102.4z"/>
	<path class="s15" d="m376 444c7.9 0 15.8 0 24 0 0.1 2.4 0.1 4.7 0.2 7.2q0 1.1 0.1 2.2c0 4.5-0.6 7.1-3.3 10.6-2.9 2.8-4.9 3.4-8.9 3.4-3.6-0.1-5-0.3-8.1-2.1-4-4.5-4.3-8.2-4.1-14.1 0-2.3 0.1-4.7 0.1-7.2z"/>
	<path class="s16" d="m1141 261q1.5 0.5 3 1-1.2 0.9-2.5 1.9c-3 3.1-3.1 5.7-3.2 9.9q0.1 1.3 0.1 2.7c0 1.4 0 1.4-0.1 2.9q0 4.8 0.1 9.6-0.1 3.5-0.1 6.9 0 9.4 0 18.8 0 9.8 0 19.6-0.1 16.5 0 33 0 17-0.1 34 0 1 0 2.1 0 11.4 0 22.8 0 3 0 6 0 3 0 6-0.1 11.7-0.1 23.4 0 7.3 0 14.6 0 3.4 0 6.7 0 4.6 0 9.3 0 1.3 0 2.6c0 5.2-0.4 10.1-1.1 15.2q-0.5 0-1 0-0.1-46.3-0.1-92.7 0-5.4 0-10.9 0-1.1 0-2.2 0-17.6-0.1-35.3 0-18.1 0-36.1 0-10.2 0-20.4 0-9.5 0-19.1 0-3.5 0-7-0.1-4.8 0-9.6 0-1.4-0.1-2.8 0-1.3 0.1-2.6 0-1.1 0-2.2c0.2-2.5 0.9-4 2.2-6.1q1.5-1 3-2z"/>
	<path class="s17" d="m1206 261c2.8 0.2 2.8 0.2 6 1 3.9 4.5 3.4 9.3 3.4 14.9q0 1.5 0 3 0 5.1 0 10.1 0 3.7 0 7.3 0 8.8-0.1 17.6 0 10.3 0 20.5 0 18.4 0 36.7-0.1 17.8-0.1 35.5 0 1.1 0 2.3 0 2.2 0 4.4 0 1 0 2.2 0 1 0 2.2 0 16.9 0 33.8 0 6.2 0 12.3 0 10.7 0 21.3 0 3.6 0 7.1 0 4.8-0.1 9.7 0 1.3 0 2.8c0 4.9-0.3 9.5-1.1 14.3q-0.5 0-1 0 0-1.9 0-3.9-0.1-46.3-0.2-92.6 0-5.7-0.1-11.4 0-1.1 0-2.3 0-18.3-0.1-36.7 0-18.8 0-37.7-0.1-11.6-0.1-23.2 0-8.9-0.1-17.8 0-3.7 0-7.3 0-5 0-10 0-1.5 0-3 0-1.3 0-2.7 0-1.1 0-2.3c-0.5-2.7-1.6-4.1-3.4-6.1q-1.5-1-3-2z"/>
	<path class="s18" d="m630 160.7c1.2 0 1.2 0 2.5 0q1.3 0 2.7 0 1.4 0 2.9 0 4.8 0 9.6-0.1 3.5 0 6.9 0 9.4 0 18.8-0.1 5.9 0 11.7 0 16.3-0.1 32.5-0.1 4.2 0 8.4 0c1.1 0 1.1 0 2.1 0q17 0 33.9-0.1 17.5-0.1 34.9-0.1 9.7 0 19.5-0.1 9.2-0.1 18.4 0 3.4 0 6.7-0.1c20.6-0.2 20.6-0.2 28.4 6.9q1 1 2.1 2.1 2.5 2 5 4c2.8 2.6 2.8 2.6 5 5q0 1 0 2 0.9 0.4 1.9 0.7c2.5 1.5 3.1 2.7 4.1 5.3q1 0 2 0c2.3 2.8 3 4.6 3.1 8.2-2.3 7.7-7.9 13.1-14.1 17.8q-1-0.5-2-1c0.7-0.6 0.7-0.6 1.3-1.3q2.9-2.8 5.7-5.7 0.9-0.9 1.8-1.8 0.8-0.9 1.6-1.8 0.8-0.7 1.5-1.5c1.6-2.8 1.5-4.7 1.1-7.9-1.6-2.6-1.6-2.6-4-4.9-1.2-1.3-1.2-1.3-2.5-2.6q-1.2-1.2-2.5-2.5-1-1-2-2.1c-6.1-6.5-14.6-15.4-24-16-1 0-1 0-2.1 0q-1.2 0-2.4-0.1-1.4 0-2.7 0-1.4 0-2.9 0-4.7 0-9.5 0-3.4 0-6.8 0-9.2-0.1-18.4-0.1-9.7 0-19.4-0.1-16.2 0-32.4-0.1-16.7-0.1-33.4-0.1-1 0-2 0-5.2-0.1-10.4-0.1-42.8-0.1-85.6-0.3 0 1 0 2-2-0.5-4-1c3-2 3.6-2.3 7-2.3z"/>
	<path class="s19" d="m387.9 400.4c4.3 0.9 6.2 2.3 9.1 5.6 0.8 2.9 0.8 5.1 0 8-2.1 3-2.1 3-5 5-4.4 0.8-6.2 0.5-9.9-2-2.3-3.3-2.9-5.1-2.6-9.1 1.2-4.5 4-6.6 8.4-7.5z"/>
	<path class="s20" d="m411.6 299c3.4 1 3.4 1 5.4 2.7 1.4 3.2 1.1 5 0 8.3-1.6 1.9-1.6 1.9-4 3-3.6-0.1-3.6-0.1-7-1-2.3-3.5-2.5-4.9-2-9 2.3-3.6 3.3-4 7.6-4z"/>
	<path class="s21" d="m489 109c8.2 0.4 12.6 3.2 18.1 9.1 8.7 11.2 8.6 21.7 8.4 35.2q0 3 0 5.9-0.1 7.7-0.2 15.3 0 7.9-0.1 15.8 0 15.3-0.2 30.7-0.5 0-1 0 0-1.5 0-3.1-0.1-14.6-0.2-29.2 0-7.5-0.1-15.1 0-7.2-0.1-14.5 0-2.7 0-5.5c0.1-13.8 0.1-13.8-4.6-26.6q-0.7-1.3-1.4-2.7c-4.7-7.3-10.6-11.3-18.6-14.3q0-0.5 0-1z"/>
	<path class="s22" d="m369 299c2.4 1.6 2.4 1.6 4 4-0.1 3.5-0.3 5.9-2.2 8.9-2.8 1.7-4.6 1.6-7.8 1.1-2.4-2.1-2.4-2.1-4-5 0.1-3.2 0.5-5.2 2.2-7.9 2.7-1.7 4.6-1.6 7.8-1.1z"/>
	<path class="s23" d="m427 245c2 1.1 2 1.1 3 3-0.1 3.6-0.1 3.6-1 7-3.5 2.3-4.9 2.5-9 2-2.4-2.1-2.9-3.4-3.4-6.6 0.4-2.4 0.4-2.4 1.5-4.2 3-1.9 5.4-1.6 8.9-1.2z"/>
	<path class="s24" d="m859 161c1.8 0.8 1.8 0.8 4 2q1.1 0.6 2.2 1.2c6.1 3.9 12 8.4 16.8 13.8q0 1 0 2 0.9 0.4 1.9 0.7c2.5 1.5 3.1 2.7 4.1 5.3q1 0 2 0c2.3 2.8 3 4.6 3.1 8.3-2.3 7.6-7.9 13-14.1 17.7q-1-0.5-2-1c0.7-0.6 0.7-0.6 1.3-1.3q2.9-2.8 5.7-5.7 0.9-0.9 1.8-1.8 0.8-0.9 1.6-1.8 0.8-0.7 1.5-1.5c1.6-2.8 1.5-4.7 1.1-7.9-1.6-2.6-1.6-2.6-4-4.9q-1.2-1.3-2.5-2.6-1.2-1.2-2.5-2.5-1-1-2-2.1c-6.2-6.5-13.7-13.2-22-16.9q1-0.5 2-1z"/>
	<path class="s25" d="m357 245c2 2 2 2 2.3 5.4-0.3 3.6-0.3 3.6-1.4 5.5-2.8 1.6-4.8 1.5-7.9 1.1-1.9-1.1-1.9-1.1-3-3-0.4-3.1-0.5-5.1 1.1-7.9 3-1.7 5.5-1.4 8.9-1.1z"/>
	<path class="s26" d="m922 505q2.3 0.4 4.6 0.8 1.6 0.2 3.3 0.5c2.9 0.5 5.7 1 8.6 1.7 15.7 3.4 30.9 3.5 46.9 3.3q3.9-0.1 7.8-0.1 9.4-0.1 18.8-0.2 0 0.5 0 1c-6.6 1-13 1.2-19.7 1.2-1.6 0-1.6 0-3.3 0q-3.5 0-7.1 0-5.3 0-10.6 0c-26.9 0.1-26.9 0.1-39.3-4.2q-3.6-0.8-7.1-1.4c-1-0.3-1-0.3-1.9-0.6q-0.5-1-1-2z"/>
	<path class="s27" d="m621 164q1 0.5 2 1c-0.9 0.7-0.9 0.7-1.8 1.4-6.3 4.9-12.1 10.2-17.8 15.8q-1.1 1-2.2 2c-2.9 2.9-4.9 5.1-6.4 9 0.3 3.8 1.6 5.1 4.3 7.8q1.3 1.3 2.5 2.6 1.2 1.2 2.4 2.4c1.7 2 3.4 4 5 6-3.8-1.6-6.2-4-9-7q-1.4-1.3-2.8-2.7c-2.2-2.3-2.2-2.3-2.2-4.3q-1 0-2 0c-0.8-8-0.8-8 2.3-11.9q1.3-1 2.7-2.1 0.8-0.9 1.7-1.8c1.3-1.2 1.3-1.2 3.3-1.2q0.3-0.8 0.7-1.7c3.7-6.5 11-11.5 17.3-15.3z"/>
	<path class="s28" d="m1206 261c2.8 0.2 2.8 0.2 6 1 3.5 4.2 3.4 8.4 3.3 13.6q0 1.2 0 2.5 0 4.2 0 8.4 0 2.9 0 5.8 0 7.7-0.1 15.4 0 7.8-0.1 15.6 0 15.4-0.1 30.7-0.5 0-1 0 0-1.6 0-3.1-0.1-14.7-0.2-29.4-0.1-7.6-0.1-15.2-0.1-7.3-0.2-14.5 0-2.8 0-5.6 0-3.9-0.1-7.8 0-1.1 0-2.3c0-4.8-0.9-8.1-3.4-12.1-2-1.9-2-1.9-4-3z"/>
	<path class="s29" d="m1547 307c1 3 1 3 0.1 6.8-1.5 6.3-1.4 12.5-1.4 18.9q0 1.8 0 3.6c0 8.1 0.9 15.8 2.3 23.7q-1-0.5-2-1c-0.6-2-0.6-2-1.1-4.5-0.4-3-0.4-3-1.9-5.5-0.2-4.3-0.2-8.5-0.2-12.8q-0.1-3.2-0.1-6.4c-0.1-7.6 0.2-14.7 3.3-21.8q0.5-0.5 1-1z"/>
	<path class="s30" d="m386 405c5.6 0.6 5.6 0.6 7 2 0.2 2.9 0.2 2.9 0 6-2 2-2 2-4.4 2.3-2.6-0.3-2.6-0.3-4.5-1.5-1.1-1.8-1.1-1.8-0.9-4.4 0.8-2.4 0.8-2.4 2.8-4.4z"/>
	<path class="s31" d="m854 442c1.8 2.7 3.1 5.4 4.5 8.3 6.1 12.8 14.1 23 24.5 32.7-3 0-3 0-5.5-2.1-1.3-1.4-1.3-1.4-2.7-2.8q-1.3-1.3-2.7-2.7c-2.1-2.4-2.1-2.4-2.1-4.4q-1 0-2 0c-6-7.6-14.7-19-14-29z"/>
	<path class="s32" d="m417 260q2 0.5 4 1-1.2 3.1-2.4 6.2-0.6 1.7-1.3 3.5-1.6 4.1-3.3 8.3-2-0.5-4-1c1.9-6.2 4.3-12.1 7-18z"/>
	<path class="s20" d="m489 109c8.2 0.4 12.6 3.2 18.1 9.1 5.9 7.3 8.7 14.7 7.9 23.9q-0.5 0-1 0-0.2-1-0.4-2c-2.5-10.2-6.4-20.2-15.6-26-2.9-1.5-5.9-2.8-9-4q0-0.5 0-1z"/>
	<path class="s33" d="m357 260c3 1 3.9 1.8 5.5 4.7q0.6 1.6 1.3 3.2 0.6 1.5 1.2 3.2c1 2.9 1 2.9 1 6.9q-1.5 0.5-3 1-1.8-3.9-3.6-7.8c-0.5-1.1-0.5-1.1-1-2.2q-0.5-1.1-1-2.2-0.4-1-0.9-2c-0.5-1.8-0.5-1.8 0.5-4.8z"/>
	<path class="s20" d="m379 377c5.9 0 11.9 0 18 0q0 2 0 4c-5.9 0-11.9 0-18 0q0-2 0-4z"/>
	<path class="s34" d="m379 359c5.6 0 11.2 0 17 0q0.5 2 1 4c-6.3 0-12.5 0-19 0q0.5-2 1-4z"/>
	<path class="s35" d="m379 342c5.9 0 11.9 0 18 0q0 2 0 4c-5.9 0-11.9 0-18 0q0-2 0-4z"/>
	<path class="s19" d="m1173 132c5.5-0.8 8.4 1.2 12.8 4.3 5.1 3.9 9.7 8.1 14.2 12.7q1.7 1.7 3.3 3.3 4.9 4.9 9.7 9.7-0.5 1-1 2-0.6-0.6-1.2-1.3c-10.6-10.7-10.6-10.7-21.8-20.7q-1.1-0.9-2.2-1.9c-4.5-3.7-8.1-6-13.8-7.1q0-0.5 0-1z"/>
	<path class="s36" d="m856 321c1 2 1 2-0.1 5.8q-0.8 2.4-1.6 4.8c-3.8 11.3-5.9 22.6-7.3 34.4q-0.5 0-1 0 0-2.2-0.1-4.4c0-1.3 0-1.3 0-2.5 0.2-7.3 1.4-14.1 3.4-21.2q0.3-1.1 0.6-2.2c1.5-5.3 3.5-9.9 6.1-14.7z"/>
	<path class="s37" d="m289 110q-0.9 0.4-1.9 0.8c-9.1 4.1-15.3 10.3-19.4 19.4-0.9 2.2-1.4 4.4-1.7 6.8q-1 0-2 0c-0.4-7.1 3.4-13.2 7.7-18.8 4.2-4.5 10.9-10.7 17.3-8.2z"/>
	<path class="s38" d="m781 467q0.5 0 1 0 0.2 7.6 0.3 15.2 0 2.5 0.1 5.1 0.1 3.7 0.1 7.4 0 1.2 0.1 2.4c0 3.9-0.3 5.5-3 8.4-2.6 1.5-2.6 1.5-4.9 1.3q-0.8-0.4-1.7-0.8 1.4-0.4 2.9-0.7 1.5-0.7 3.1-1.3c1.5-3.6 1.2-7.7 1.3-11.6q0-1.1 0.1-2.2 0.1-3.5 0.2-6.9 0-2.4 0.1-4.8 0.2-5.7 0.3-11.5z"/>
	<path class="s39" d="m887 279q1 0.5 2 1-2.6 2.8-5.1 5.7-0.7 0.8-1.5 1.6c-3.2 3.6-6.6 6.7-10.4 9.7 0-3.9 1.4-5.2 4-8q1 0 2 0 0.5-1.5 1-3c1.8-1.8 1.8-1.8 4.1-3.7 1.1-0.9 1.1-0.9 2.2-1.9q0.8-0.7 1.7-1.4z"/>
	<path class="s40" d="m1157 144q1 0.5 2 1c-7.3 7.3-14.5 14.5-22 22 0-5.2 4.5-8.4 8-12q3.1-2.8 6.2-5.5c2.1-1.7 4-3.6 5.8-5.5z"/>
	<path class="s41" d="m1220 172c3 1 3 1 4.1 2.9 0.4 1.2 0.4 1.2 0.8 2.4 0.4 1.2 0.4 1.2 0.8 2.4 0.3 2.3 0.3 2.3-1.1 4.6q-0.8 0.8-1.6 1.7c-0.1-1-0.1-1-0.1-2q-0.2-1.4-0.3-2.7-0.1-1.4-0.2-2.7c-0.4-2.6-1.1-4.4-2.4-6.6z"/>
	<path class="s42" d="m781 498q0.5 0 1 0c0.3 2.3 0.3 2.3 0 5-2.3 2.4-2.3 2.4-5 4-2.3-0.3-2.3-0.3-4-1q1.4-0.3 2.9-0.6c3.4-1.1 3.4-1.1 4.5-4.5q0.3-1.4 0.6-2.9z"/>
	<path class="s43" d="m489 109c6.1 0.4 6.1 0.4 8 1q1 2 2 4c-4.9-2-4.9-2-10-4q0-0.5 0-1z"/>
	<path class="s44" d="m608 175q1 0.5 2 1c-3.5 3-3.5 3-7 6 1.1-4.3 1.5-4.7 5-7z"/>
</svg>